# xmcd
#
# Track frame offsets: 
#        300
#        19152
#        38461
#        61563
#        82435
#        99387
#        121437
#        136705
#        154023
#        170456
#        188395
#        209845
#        232634
#        253834
#        275226
#        294556
#
# Disc length: 4223 seconds
#
# Revision: 0
# Processed by: cddbd v1.5.2PL0 Copyright (c) Steve Scherf et al.
# Submitted via: ExactAudioCopy v1.3
#
DISCID=db107b10
DTITLE=群星 - 十大音色神话A
DYEAR=1900
DGENRE=Folk
TTITLE0=因为爱情
TTITLE1=爱无悔伤无悔
TTITLE2=我们的歌谣
TTITLE3=伤不起
TTITLE4=红尘情歌
TTITLE5=我最亲爱的
TTITLE6=爱的供养
TTITLE7=滴答
TTITLE8=问
TTITLE9=你不配
TTITLE10=等不到的爱
TTITLE11=无法原谅
TTITLE12=别用下辈子安慰我
TTITLE13=我爱你胜过你爱我
TTITLE14=梦的翅膀受了伤
TTITLE15=被伤过的心还可以爱谁
EXTD=
EXTT0=
EXTT1=
EXTT2=
EXTT3=
EXTT4=
EXTT5=
EXTT6=
EXTT7=
EXTT8=
EXTT9=
EXTT10=
EXTT11=
EXTT12=
EXTT13=
EXTT14=
EXTT15=
PLAYORDER=
